<?xml version="1.0" encoding="iso-8859-1"?>
<!-- Uploaded to: SVG Repo, www.svgrepo.com, Generator: SVG Repo Mixer Tools -->
<svg fill="#000000" height="800px" width="800px" version="1.1" id="Layer_1" xmlns="http://www.w3.org/2000/svg" xmlns:xlink="http://www.w3.org/1999/xlink" 
	 viewBox="0 0 512.003 512.003" xml:space="preserve">
<g>
	<g>
		<path d="M221.867,59.735h-153.6c-4.719,0-8.533,3.823-8.533,8.533v136.533c0,4.71,3.814,8.533,8.533,8.533h153.6
			c4.719,0,8.533-3.823,8.533-8.533V68.268C230.4,63.558,226.586,59.735,221.867,59.735z"/>
	</g>
</g>
<g>
	<g>
		<path d="M221.867,298.668h-153.6c-4.719,0-8.533,3.823-8.533,8.533v136.533c0,4.71,3.814,8.533,8.533,8.533h153.6
			c4.719,0,8.533-3.823,8.533-8.533V307.202C230.4,302.491,226.586,298.668,221.867,298.668z"/>
	</g>
</g>
<g>
	<g>
		<path d="M509.986,310.222L322.253,88.356c-2.321-2.739-6.093-3.721-9.446-2.5c-3.371,1.237-5.606,4.437-5.606,8.013v290.133
			c0,2.799,1.374,5.419,3.678,7.014c2.295,1.596,5.222,1.954,7.859,0.981l60.117-22.545l48.299,136.866
			c1.237,3.49,4.523,5.683,8.047,5.683c0.887,0,1.801-0.145,2.697-0.435l51.2-17.067c2.167-0.725,3.959-2.295,4.966-4.343
			c1.007-2.057,1.143-4.437,0.384-6.588l-48.41-137.182l60.433-22.656c2.594-0.973,4.557-3.157,5.257-5.845
			C512.427,315.206,511.778,312.347,509.986,310.222z"/>
	</g>
</g>
<g>
	<g>
		<path d="M273.067,0.002h-256C7.654,0.002,0,7.656,0,17.068v477.867c0,9.412,7.654,17.067,17.067,17.067h256
			c9.412,0,17.067-7.654,17.067-17.067V17.068C290.133,7.656,282.479,0.002,273.067,0.002z M17.067,494.935V17.068h256
			l0.008,477.867H17.067z"/>
	</g>
</g>
</svg>