<?xml version="1.0" encoding="iso-8859-1"?>
<!-- Uploaded to: SVG Repo, www.svgrepo.com, Generator: SVG Repo Mixer Tools -->
<svg fill="#000000" height="800px" width="800px" version="1.1" id="Layer_1" xmlns="http://www.w3.org/2000/svg" xmlns:xlink="http://www.w3.org/1999/xlink" 
	 viewBox="0 0 512 512" xml:space="preserve">
<g>
	<g>
		<path d="M503.467,315.733H332.8c-4.719,0-8.533,3.823-8.533,8.533s3.814,8.533,8.533,8.533h170.667
			c4.719,0,8.533-3.823,8.533-8.533S508.186,315.733,503.467,315.733z"/>
	</g>
</g>
<g>
	<g>
		<path d="M503.467,179.2h-76.8v-76.8c0-4.71-3.814-8.533-8.533-8.533S409.6,97.69,409.6,102.4v76.8h-76.8
			c-4.719,0-8.533,3.823-8.533,8.533s3.814,8.533,8.533,8.533h76.8v76.8c0,4.71,3.814,8.533,8.533,8.533s8.533-3.823,8.533-8.533
			v-76.8h76.8c4.719,0,8.533-3.823,8.533-8.533S508.186,179.2,503.467,179.2z"/>
	</g>
</g>
<g>
	<g>
		<path d="M221.867,59.733h-153.6c-4.719,0-8.533,3.823-8.533,8.533V204.8c0,4.71,3.814,8.533,8.533,8.533h153.6
			c4.719,0,8.533-3.823,8.533-8.533V68.267C230.4,63.556,226.586,59.733,221.867,59.733z"/>
	</g>
</g>
<g>
	<g>
		<path d="M221.867,298.667h-153.6c-4.719,0-8.533,3.823-8.533,8.533v136.533c0,4.71,3.814,8.533,8.533,8.533h153.6
			c4.719,0,8.533-3.823,8.533-8.533V307.2C230.4,302.49,226.586,298.667,221.867,298.667z"/>
	</g>
</g>
<g>
	<g>
		<path d="M273.067,0h-256C7.654,0,0,7.654,0,17.067v477.867C0,504.346,7.654,512,17.067,512h256
			c9.412,0,17.067-7.654,17.067-17.067V17.067C290.133,7.654,282.479,0,273.067,0z M17.067,494.933V17.067h256l0.008,477.867H17.067
			z"/>
	</g>
</g>
</svg>